<?xml version="1.0" standalone="no"?>
<!DOCTYPE svg PUBLIC "-//W3C//DTD SVG 20010904//EN"
 "http://www.w3.org/TR/2001/REC-SVG-20010904/DTD/svg10.dtd">
<svg version="1.0" xmlns="http://www.w3.org/2000/svg"
 width="1024.000000pt" height="1024.000000pt" viewBox="0 0 1024.000000 1024.000000"
 preserveAspectRatio="xMidYMid meet">

<g transform="translate(0.000000,1024.000000) scale(0.100000,-0.100000)"
fill="#000000" stroke="none">
<path d="M4985 9393 c-77 -30 -268 -101 -425 -158 -157 -57 -352 -128 -435
-158 -135 -49 -812 -284 -842 -293 -10 -3 -13 -147 -13 -680 0 -719 3 -774 51
-974 85 -354 330 -725 702 -1062 l77 -70 78 59 c207 161 424 261 667 309 125
25 393 25 528 0 249 -45 498 -161 704 -326 l52 -42 28 20 c56 40 360 360 430
452 173 230 283 462 340 723 l27 122 3 736 4 736 -47 12 c-45 12 -459 160
-1344 483 -212 77 -399 146 -415 153 -28 11 -42 8 -170 -42z m-702 -904 c170
-57 264 -178 274 -354 3 -45 2 -85 -3 -88 -5 -3 -75 -8 -156 -12 l-147 -8 5
47 c12 97 -24 167 -97 186 -33 9 -47 8 -83 -9 -57 -25 -76 -61 -76 -143 0
-103 33 -143 190 -229 216 -120 305 -196 362 -308 32 -65 33 -68 33 -202 0
-136 0 -136 -35 -205 -45 -88 -122 -151 -235 -195 -193 -75 -408 -38 -529 91
-71 76 -106 159 -113 268 l-6 89 74 7 c114 10 171 16 210 20 l36 4 -1 -76 c-1
-93 17 -133 74 -162 73 -37 153 -17 198 50 20 30 23 45 20 101 -6 112 -56 160
-325 314 -185 106 -261 215 -271 386 -7 139 22 230 101 316 116 126 321 172
500 112z m1689 -574 c3 -558 4 -582 23 -619 47 -92 199 -104 275 -21 l25 27 3
593 2 594 151 3 150 3 -3 -615 c-4 -685 -1 -654 -75 -767 -95 -144 -289 -211
-498 -172 -132 24 -256 112 -304 213 -50 108 -51 119 -51 753 l0 594 150 -3
150 -3 2 -580z m-432 445 l0 -130 -140 0 -140 0 0 -635 0 -636 -150 3 -150 3
-1 633 0 632 -145 0 -144 0 0 130 0 130 435 0 435 0 0 -130z"/>
<path d="M4890 6115 c-90 -15 -238 -63 -318 -104 -114 -57 -361 -240 -342
-252 3 -2 35 -32 71 -67 l66 -63 47 40 c141 122 310 205 501 246 70 14 320 15
390 1 177 -37 374 -133 524 -254 l44 -36 64 69 65 69 -44 38 c-192 167 -419
279 -638 314 -104 17 -328 17 -430 -1z"/>
<path d="M4902 5664 c-45 -13 -113 -39 -150 -58 -70 -35 -208 -133 -216 -152
-2 -6 26 -42 64 -79 l68 -68 49 41 c118 99 247 146 398 146 149 0 269 -43 399
-141 l59 -45 63 63 c35 35 64 69 64 75 0 20 -153 130 -233 168 -164 79 -397
100 -565 50z"/>
<path d="M3034 5546 c-4 -12 -72 -286 -80 -321 -2 -11 -65 -263 -139 -560 -74
-297 -135 -545 -135 -551 0 -7 37 -14 101 -18 56 -4 124 -11 153 -16 28 -5 74
-11 101 -14 122 -15 240 -34 340 -57 385 -88 690 -203 1001 -379 250 -141 413
-259 580 -421 l71 -68 6 331 c4 182 7 511 7 731 l0 400 -37 41 c-290 322 -782
617 -1294 775 -263 82 -664 157 -675 127z"/>
<path d="M7180 5557 c-3 -3 -39 -8 -80 -11 -100 -9 -295 -48 -455 -92 -548
-151 -1005 -406 -1349 -753 l-99 -100 -3 -138 c-2 -133 16 -1315 21 -1321 1
-1 26 22 56 50 206 201 523 419 799 550 366 175 713 280 1025 313 33 3 116 12
185 20 69 7 158 17 198 20 l73 7 -7 32 c-9 42 -199 820 -274 1120 -33 131 -60
246 -60 255 0 19 -23 55 -30 48z"/>
<path d="M5005 5205 c-42 -16 -135 -75 -135 -86 0 -4 24 -24 53 -46 28 -22 86
-72 128 -111 l76 -71 54 55 c30 31 85 81 123 112 l68 56 -28 24 c-16 13 -54
36 -84 50 -69 32 -192 40 -255 17z"/>
<path d="M2506 4898 c-72 -225 -243 -770 -343 -1091 -35 -115 -63 -210 -61
-212 2 -3 44 0 93 5 248 27 665 22 925 -10 41 -5 98 -12 125 -15 311 -34 967
-183 1270 -289 55 -19 101 -33 103 -31 6 6 -165 125 -267 186 -221 131 -458
235 -701 307 -141 42 -323 86 -400 97 -24 4 -47 8 -50 10 -3 1 -27 6 -55 9
-27 4 -84 11 -125 16 -162 21 -271 29 -413 31 -132 1 -147 3 -143 17 32 110
174 617 231 828 41 149 79 283 85 298 5 15 10 32 10 37 0 5 -48 9 -110 9
l-109 0 -65 -202z"/>
<path d="M7444 5092 c11 -18 291 -1001 321 -1124 l13 -58 -96 0 c-114 0 -469
-26 -562 -41 -36 -6 -83 -13 -105 -15 -71 -9 -351 -74 -457 -105 -322 -96
-708 -296 -933 -484 l-30 -25 46 19 c235 97 834 246 1211 301 438 64 923 77
1251 34 47 -7 48 -6 38 17 -6 13 -78 240 -161 504 -84 264 -187 591 -231 728
-43 136 -79 249 -79 252 0 3 -52 5 -116 5 -63 0 -113 -4 -110 -8z"/>
<path d="M4091 2911 l-73 -6 -2 -95 -1 -95 -62 -3 -63 -3 0 -69 0 -69 63 -3
62 -3 2 -184 c2 -188 9 -231 44 -276 54 -67 230 -83 300 -26 20 16 21 20 9 73
-18 79 -19 80 -69 62 -38 -13 -46 -13 -66 0 -29 19 -35 58 -35 224 l0 132 88
0 87 0 -3 72 -3 73 -85 -3 -84 -3 0 105 c0 95 -2 106 -17 104 -10 -1 -51 -4
-92 -7z"/>
<path d="M4698 2913 l-78 -4 0 -94 0 -95 -60 0 -60 0 0 -75 0 -75 59 0 59 0 4
-192 c3 -184 4 -195 28 -238 35 -63 91 -90 185 -90 72 0 155 27 155 50 0 6 -7
40 -16 76 -12 47 -20 62 -28 55 -7 -6 -31 -13 -54 -17 -33 -5 -47 -3 -62 11
-18 17 -20 32 -20 182 l0 163 90 0 90 0 0 75 0 75 -90 0 -90 0 0 100 c0 89 -2
100 -17 98 -10 -1 -53 -4 -95 -5z"/>
<path d="M5280 2911 l-75 -6 -3 -92 -3 -93 -59 0 -60 0 0 -75 0 -75 59 0 59 0
4 -192 c3 -182 5 -195 28 -238 34 -62 91 -90 181 -90 79 0 159 29 159 57 0 10
-6 41 -14 68 -10 40 -17 49 -32 47 -10 -1 -35 -5 -55 -8 -29 -5 -41 -2 -58 15
-20 20 -21 31 -21 181 l0 160 85 0 85 0 0 75 0 75 -87 0 -88 0 3 100 c3 92 2
100 -15 98 -10 -1 -52 -4 -93 -7z"/>
<path d="M5972 2720 c-23 -10 -56 -34 -72 -52 l-30 -32 0 47 0 47 -85 0 -85 0
0 -330 0 -330 85 0 85 0 0 183 c0 158 3 188 20 224 24 55 70 83 133 83 64 0
85 -13 108 -66 18 -39 20 -65 19 -231 l-2 -188 86 -3 86 -3 0 231 c0 142 -4
249 -12 277 -15 60 -87 137 -143 152 -62 17 -145 13 -193 -9z"/>
<path d="M4940 1925 c-22 -30 -40 -57 -40 -60 0 -3 33 -5 73 -5 78 0 82 2 161
98 l19 22 -86 0 -86 0 -41 -55z"/>
<path d="M4880 1804 c-53 -10 -147 -48 -192 -78 -58 -38 -135 -127 -160 -184
-66 -148 -63 -342 8 -471 53 -98 163 -189 274 -227 74 -25 233 -26 312 -1 123
38 254 159 300 277 26 68 36 229 18 313 -33 160 -151 290 -316 348 -56 20
-192 33 -244 23z m220 -220 c101 -55 145 -141 144 -279 0 -99 -27 -167 -88
-223 -61 -56 -119 -76 -210 -70 -164 11 -263 127 -259 308 1 83 19 143 59 195
78 103 235 134 354 69z"/>
<path d="M7177 1790 c-82 -29 -130 -62 -175 -119 -72 -91 -89 -222 -43 -325
46 -105 131 -156 260 -156 45 0 81 -2 81 -4 0 -2 -47 -79 -105 -171 -58 -92
-105 -169 -105 -171 0 -2 51 -4 113 -4 l114 0 121 198 c173 282 176 291 177
432 0 135 -12 167 -88 242 -89 87 -233 119 -350 78z m188 -199 c40 -31 53 -53
60 -97 5 -31 2 -46 -17 -74 -31 -47 -105 -83 -151 -75 -76 15 -128 71 -130
141 -1 39 25 79 74 112 44 30 122 27 164 -7z"/>
<path d="M2660 1315 l0 -475 95 0 96 0 -3 315 c-2 173 -1 315 2 315 3 -1 93
-142 200 -315 l195 -314 93 -1 92 0 0 475 0 475 -95 0 -95 0 -2 -301 -3 -300
-185 300 -185 301 -102 0 -103 0 0 -475z"/>
<path d="M3620 1325 c0 -256 0 -468 0 -472 0 -5 43 -8 95 -8 l96 0 2 190 2
190 173 0 174 0 -2 -192 -1 -193 101 0 100 0 0 475 0 476 -97 -3 -98 -3 -2
-185 -2 -185 -173 0 -173 0 -1 185 0 185 -97 3 -97 3 0 -466z"/>
<path d="M5580 1315 l0 -476 96 3 95 3 -1 305 c0 171 3 300 8 295 5 -6 55
-110 112 -232 l103 -223 61 0 61 0 107 228 108 227 0 -302 0 -303 95 0 95 0 0
475 0 475 -108 0 -108 0 -52 -114 c-113 -248 -194 -408 -201 -400 -4 5 -59
123 -121 262 l-113 252 -118 0 -119 0 0 -475z"/>
</g>
</svg>
